<svg xmlns="http://www.w3.org/2000/svg" xmlns:xlink="http://www.w3.org/1999/xlink"><defs>
<clipPath id="clip0_5656_378">
<rect width="48" height="48" fill="white"/>
</clipPath>

<clipPath id="clip0_5656_390">
<rect width="40" height="40" fill="white" transform="translate(0.5)"/>
</clipPath>
</defs><symbol id="git" viewBox="0 0 16 16"><g fill="none">
  <path d="M8 0c4.42 0 8 3.58 8 8a8.013 8.013 0 0 1-5.45 7.59c-.4.08-.55-.17-.55-.38 0-.27.01-1.13.01-2.2 0-.75-.25-1.23-.54-1.48 1.78-.2 3.65-.88 3.65-3.95 0-.88-.31-1.59-.82-2.15.08-.2.36-1.02-.08-2.12 0 0-.67-.22-2.2.82-.64-.18-1.32-.27-2-.27-.68 0-1.36.09-2 .27-1.53-1.03-2.2-.82-2.2-.82-.44 1.1-.16 1.92-.08 2.12-.51.56-.82 1.28-.82 2.15 0 3.06 1.86 3.75 3.64 3.95-.23.2-.44.55-.51 1.07-.46.21-1.61.55-2.33-.66-.15-.24-.6-.83-1.23-.82-.67.01-.27.38.01.53.34.19.73.9.82 1.13.16.45.68 1.31 2.69.94 0 .67.01 1.3.01 1.49 0 .21-.15.45-.55.38A7.995 7.995 0 0 1 0 8c0-4.42 3.58-8 8-8Z" fill="currentColor"/>
</g></symbol><symbol id="icon-approve" viewBox="0 0 30 30"><g fill="none">
<circle cx="15" cy="15" r="15" fill="#009F9D"/>
<path d="M13.5837 21.7099C11.0864 19.9891 9.38744 16.9897 8.39792 14.4819C7.74562 12.8287 8.57038 11.0363 10.1276 10.1798L13.0723 8.56022C14.2727 7.90004 15.7273 7.90004 16.9277 8.56022L19.8415 10.1628C21.4133 11.0273 22.2568 12.8511 21.6164 14.5267C20.1748 18.2986 18.0423 20.5678 16.4155 21.7138C15.564 22.3136 14.4414 22.3008 13.5837 21.7099Z" fill="white"/>
<path d="M12 15.5625L13.6875 17.25L18.1875 12.75" stroke="#009F9D" stroke-width="2" stroke-linecap="round" stroke-linejoin="round"/>
</g></symbol><symbol id="icon-arrow" viewBox="0 0 10 16"><g fill="none">
<path d="M1 1L8 8L1 15" stroke="currentColor" stroke-width="1"/>
</g></symbol><symbol id="icon-client" viewBox="0 0 48 48"><g fill="none">
<g clip-path="url(#clip0_5656_378)">
<path d="M19 37C28.9411 37 37 28.9411 37 19C37 9.05887 28.9411 1 19 1C9.05887 1 1 9.05887 1 19C1 28.9411 9.05887 37 19 37Z" stroke="black" stroke-miterlimit="10" stroke-linecap="round" stroke-linejoin="round"/>
<path d="M31.8 31.7998L47.0001 46.9998" stroke="black" stroke-miterlimit="10" stroke-linecap="round" stroke-linejoin="round"/>
<path d="M16 21.2002V24.6002L8 28.0002" stroke="black" stroke-miterlimit="10" stroke-linecap="round" stroke-linejoin="round"/>
<path d="M22 21.2002V24.6002L30 28.0002" stroke="black" stroke-miterlimit="10" stroke-linecap="round" stroke-linejoin="round"/>
<path d="M25.4 14.4001C25.4 18.6001 22.6 22.0001 19 22.0001C15.4 22.0001 12.6 18.6001 12.6 14.4001C12.6 10.2001 15.4 6.80014 19 6.80014C22.6 6.60014 25.4 10.0001 25.4 14.4001Z" stroke="black" stroke-miterlimit="10" stroke-linecap="round" stroke-linejoin="round"/>
<path d="M25.4001 13.4C25.2001 13.4 25.0001 13.4 24.6001 13.4C22.6001 13.8 21.2001 13 20.0001 11C19.4001 12.4 17.2 13.4 15.4 13.4C14.6 13.4 13.4 13.2 12.8 12.8" stroke="black" stroke-miterlimit="10" stroke-linecap="round" stroke-linejoin="round"/>
</g>

</g></symbol><symbol id="icon-close" viewBox="0 0 24 24"><g fill="none">
<path fill-rule="evenodd" clip-rule="evenodd" d="M18.7071 5.29289C19.0976 5.68342 19.0976 6.31658 18.7071 6.70711L6.70711 18.7071C6.31658 19.0976 5.68342 19.0976 5.29289 18.7071C4.90237 18.3166 4.90237 17.6834 5.29289 17.2929L17.2929 5.29289C17.6834 4.90237 18.3166 4.90237 18.7071 5.29289Z" fill="currentColor"/>
<path fill-rule="evenodd" clip-rule="evenodd" d="M5.29289 5.29289C5.68342 4.90237 6.31658 4.90237 6.70711 5.29289L18.7071 17.2929C19.0976 17.6834 19.0976 18.3166 18.7071 18.7071C18.3166 19.0976 17.6834 19.0976 17.2929 18.7071L5.29289 6.70711C4.90237 6.31658 4.90237 5.68342 5.29289 5.29289Z" fill="currentColor"/>
</g></symbol><symbol id="icon-expanded" viewBox="0 0 7 12"><g fill="none">
<path fill-rule="evenodd" clip-rule="evenodd" d="M0.626229 0.459519C0.235705 0.850043 0.235705 1.48321 0.626229 1.87373L4.58579 5.83329L0.626229 9.79285C0.235705 10.1834 0.235705 10.8165 0.626229 11.2071C1.01675 11.5976 1.64992 11.5976 2.04044 11.2071L6.70711 6.5404C7.09763 6.14988 7.09763 5.51671 6.70711 5.12619L2.04044 0.459519C1.64992 0.0689949 1.01675 0.0689949 0.626229 0.459519Z" fill="#6B7280"/>
</g></symbol><symbol id="icon-forward" viewBox="0 0 16 17"><g fill="none">
<path d="M14.4 8.98691L10.0696 13.3347C9.93043 13.4739 9.75651 13.5434 9.5826 13.5434C9.40869 13.5434 9.23477 13.4739 9.09564 13.3347C8.81738 13.0565 8.81738 12.6217 9.09564 12.3434L12.2435 9.19561H2.08695C1.70434 9.19561 1.3913 8.88257 1.3913 8.49996C1.3913 8.11735 1.70434 7.8043 2.08695 7.8043H12.2435L9.07825 4.63909C8.79999 4.36083 8.79999 3.92604 9.07825 3.64778C9.35651 3.36952 9.7913 3.36952 10.0696 3.64778L14.4 7.99561C14.6783 8.27387 14.6783 8.72604 14.4 8.98691Z" fill="currentColor"/>
</g></symbol><symbol id="icon-graph" viewBox="0 0 41 40"><g fill="none">
<g clip-path="url(#clip0_5656_390)">
<path d="M1.33325 39.1665H39.6666" stroke="black" stroke-miterlimit="10" stroke-linecap="round" stroke-linejoin="round"/>
<path d="M8 30.8333H3V39.1666H8V30.8333Z" stroke="black" stroke-miterlimit="10" stroke-linecap="round" stroke-linejoin="round"/>
<path d="M18 22.5H13V39.1667H18V22.5Z" stroke="black" stroke-miterlimit="10" stroke-linecap="round" stroke-linejoin="round"/>
<path d="M28 25.8333H23V39.1666H28V25.8333Z" stroke="black" stroke-miterlimit="10" stroke-linecap="round" stroke-linejoin="round"/>
<path d="M38 14.1665H33V39.1665H38V14.1665Z" stroke="black" stroke-miterlimit="10" stroke-linecap="round" stroke-linejoin="round"/>
<path d="M5.49992 20.8333C6.42039 20.8333 7.16659 20.0871 7.16659 19.1667C7.16659 18.2462 6.42039 17.5 5.49992 17.5C4.57944 17.5 3.83325 18.2462 3.83325 19.1667C3.83325 20.0871 4.57944 20.8333 5.49992 20.8333Z" stroke="black" stroke-miterlimit="10" stroke-linecap="round" stroke-linejoin="round"/>
<path d="M15.4999 12.4998C16.4204 12.4998 17.1666 11.7536 17.1666 10.8332C17.1666 9.9127 16.4204 9.1665 15.4999 9.1665C14.5794 9.1665 13.8333 9.9127 13.8333 10.8332C13.8333 11.7536 14.5794 12.4998 15.4999 12.4998Z" stroke="black" stroke-miterlimit="10" stroke-linecap="round" stroke-linejoin="round"/>
<path d="M25.4999 15.8333C26.4204 15.8333 27.1666 15.0871 27.1666 14.1667C27.1666 13.2462 26.4204 12.5 25.4999 12.5C24.5794 12.5 23.8333 13.2462 23.8333 14.1667C23.8333 15.0871 24.5794 15.8333 25.4999 15.8333Z" stroke="black" stroke-miterlimit="10" stroke-linecap="round" stroke-linejoin="round"/>
<path d="M35.4999 4.16658C36.4204 4.16658 37.1666 3.42039 37.1666 2.49992C37.1666 1.57944 36.4204 0.833252 35.4999 0.833252C34.5794 0.833252 33.8333 1.57944 33.8333 2.49992C33.8333 3.42039 34.5794 4.16658 35.4999 4.16658Z" stroke="black" stroke-miterlimit="10" stroke-linecap="round" stroke-linejoin="round"/>
<path d="M6.83325 18.1666L14.1666 11.8333" stroke="black" stroke-miterlimit="10" stroke-linecap="round" stroke-linejoin="round"/>
<path d="M17 11.333L24 13.6663" stroke="black" stroke-miterlimit="10" stroke-linejoin="round"/>
<path d="M34.3332 3.83301L26.6665 12.833" stroke="black" stroke-miterlimit="10" stroke-linecap="round" stroke-linejoin="round"/>
</g>

</g></symbol><symbol id="icon-new-window" viewBox="0 0 16 17"><g fill="none">
<path d="M16 0V8.5H14.9333V2.07627L4.97707 12.6548L4.22293 11.8535L14.3125 1.13333H8V0H16ZM11.7333 15.8667H1.06667V4.53333H8.07893V3.4H0V17H12.8V8.25747H11.7333V15.8667Z" fill="#E8DAFF"/>
</g></symbol><symbol id="icon-quotes" viewBox="0 0 48 36"><g fill="none">
<path d="M28.034 36L28.034 21.218C28.034 9.81 35.496 2.078 46 0L47.99 4.302C43.126 6.136 40 11.578 40 16H48V36H28.034ZM0 36V21.218C0 9.81 7.496 2.076 18 0L19.992 4.302C15.126 6.136 12 11.578 12 16H19.966L19.966 36L0 36Z" fill="#7E3AF2"/>
</g></symbol><symbol id="icon-table" viewBox="0 0 48 47"><g fill="none">
<path d="M21 16.5C21 18.7 19.2 20.5 17 20.5H5C2.8 20.5 1 18.7 1 16.5V4.5C1 2.3 2.8 0.5 5 0.5H17C19.2 0.5 21 2.3 21 4.5V16.5Z" stroke="black" stroke-miterlimit="10" stroke-linecap="round" stroke-linejoin="round"/>
<path d="M1 6.5H21" stroke="black" stroke-miterlimit="10" stroke-linecap="round" stroke-linejoin="round"/>
<path d="M27 16.5C27 18.7 28.8 20.5 31 20.5H43C45.2 20.5 47 18.7 47 16.5V4.5C47 2.3 45.2 0.5 43 0.5H31C28.8 0.5 27 2.3 27 4.5V16.5Z" stroke="black" stroke-miterlimit="10" stroke-linecap="round" stroke-linejoin="round"/>
<path d="M47 6.5H27" stroke="black" stroke-miterlimit="10" stroke-linecap="round" stroke-linejoin="round"/>
<path d="M21 42.5C21 44.7 19.2 46.5 17 46.5H5C2.8 46.5 1 44.7 1 42.5V30.5C1 28.3 2.8 26.5 5 26.5H17C19.2 26.5 21 28.3 21 30.5V42.5Z" stroke="black" stroke-miterlimit="10" stroke-linecap="round" stroke-linejoin="round"/>
<path d="M1 32.5H21" stroke="black" stroke-miterlimit="10" stroke-linecap="round" stroke-linejoin="round"/>
<path d="M27 42.5C27 44.7 28.8 46.5 31 46.5H43C45.2 46.5 47 44.7 47 42.5V30.5C47 28.3 45.2 26.5 43 26.5H31C28.8 26.5 27 28.3 27 30.5V42.5Z" stroke="black" stroke-miterlimit="10" stroke-linecap="round" stroke-linejoin="round"/>
<path d="M47 32.5H27" stroke="black" stroke-miterlimit="10" stroke-linecap="round" stroke-linejoin="round"/>
</g></symbol><symbol id="icon-tick" viewBox="0 0 16 16"><g fill="none">
<path fill-rule="evenodd" clip-rule="evenodd" d="M8 16C10.1217 16 12.1566 15.1571 13.6569 13.6569C15.1571 12.1566 16 10.1217 16 8C16 5.87827 15.1571 3.84344 13.6569 2.34315C12.1566 0.842855 10.1217 0 8 0C5.87827 0 3.84344 0.842855 2.34315 2.34315C0.842855 3.84344 0 5.87827 0 8C0 10.1217 0.842855 12.1566 2.34315 13.6569C3.84344 15.1571 5.87827 16 8 16ZM11.707 6.707C11.8892 6.5184 11.99 6.2658 11.9877 6.0036C11.9854 5.7414 11.8802 5.49059 11.6948 5.30518C11.5094 5.11977 11.2586 5.0146 10.9964 5.01233C10.7342 5.01005 10.4816 5.11084 10.293 5.293L7 8.586L5.707 7.293C5.5184 7.11084 5.2658 7.01005 5.0036 7.01233C4.7414 7.0146 4.49059 7.11977 4.30518 7.30518C4.11977 7.49059 4.0146 7.7414 4.01233 8.0036C4.01005 8.2658 4.11084 8.5184 4.293 8.707L6.293 10.707C6.48053 10.8945 6.73484 10.9998 7 10.9998C7.26516 10.9998 7.51947 10.8945 7.707 10.707L11.707 6.707Z" fill="#7E3AF2"/>
</g></symbol></svg>