<svg xmlns="http://www.w3.org/2000/svg" xmlns:xlink="http://www.w3.org/1999/xlink"><symbol id="git" viewBox="0 0 16 16"><g fill="none">
  <path d="M8 0c4.42 0 8 3.58 8 8a8.013 8.013 0 0 1-5.45 7.59c-.4.08-.55-.17-.55-.38 0-.27.01-1.13.01-2.2 0-.75-.25-1.23-.54-1.48 1.78-.2 3.65-.88 3.65-3.95 0-.88-.31-1.59-.82-2.15.08-.2.36-1.02-.08-2.12 0 0-.67-.22-2.2.82-.64-.18-1.32-.27-2-.27-.68 0-1.36.09-2 .27-1.53-1.03-2.2-.82-2.2-.82-.44 1.1-.16 1.92-.08 2.12-.51.56-.82 1.28-.82 2.15 0 3.06 1.86 3.75 3.64 3.95-.23.2-.44.55-.51 1.07-.46.21-1.61.55-2.33-.66-.15-.24-.6-.83-1.23-.82-.67.01-.27.38.01.53.34.19.73.9.82 1.13.16.45.68 1.31 2.69.94 0 .67.01 1.3.01 1.49 0 .21-.15.45-.55.38A7.995 7.995 0 0 1 0 8c0-4.42 3.58-8 8-8Z" fill="currentColor"/>
</g></symbol><symbol id="icon-arrow" viewBox="0 0 10 16"><g fill="none">
<path d="M1 1L8 8L1 15" stroke="currentColor" stroke-width="1"/>
</g></symbol><symbol id="icon-close" viewBox="0 0 24 24"><g fill="none">
<path fill-rule="evenodd" clip-rule="evenodd" d="M18.7071 5.29289C19.0976 5.68342 19.0976 6.31658 18.7071 6.70711L6.70711 18.7071C6.31658 19.0976 5.68342 19.0976 5.29289 18.7071C4.90237 18.3166 4.90237 17.6834 5.29289 17.2929L17.2929 5.29289C17.6834 4.90237 18.3166 4.90237 18.7071 5.29289Z" fill="currentColor"/>
<path fill-rule="evenodd" clip-rule="evenodd" d="M5.29289 5.29289C5.68342 4.90237 6.31658 4.90237 6.70711 5.29289L18.7071 17.2929C19.0976 17.6834 19.0976 18.3166 18.7071 18.7071C18.3166 19.0976 17.6834 19.0976 17.2929 18.7071L5.29289 6.70711C4.90237 6.31658 4.90237 5.68342 5.29289 5.29289Z" fill="currentColor"/>
</g></symbol><symbol id="icon-expanded" viewBox="0 0 7 12"><g fill="none">
<path fill-rule="evenodd" clip-rule="evenodd" d="M0.626229 0.459519C0.235705 0.850043 0.235705 1.48321 0.626229 1.87373L4.58579 5.83329L0.626229 9.79285C0.235705 10.1834 0.235705 10.8165 0.626229 11.2071C1.01675 11.5976 1.64992 11.5976 2.04044 11.2071L6.70711 6.5404C7.09763 6.14988 7.09763 5.51671 6.70711 5.12619L2.04044 0.459519C1.64992 0.0689949 1.01675 0.0689949 0.626229 0.459519Z" fill="#6B7280"/>
</g></symbol><symbol id="icon-forward" viewBox="0 0 16 17"><g fill="none">
<path d="M14.4 8.98691L10.0696 13.3347C9.93043 13.4739 9.75651 13.5434 9.5826 13.5434C9.40869 13.5434 9.23477 13.4739 9.09564 13.3347C8.81738 13.0565 8.81738 12.6217 9.09564 12.3434L12.2435 9.19561H2.08695C1.70434 9.19561 1.3913 8.88257 1.3913 8.49996C1.3913 8.11735 1.70434 7.8043 2.08695 7.8043H12.2435L9.07825 4.63909C8.79999 4.36083 8.79999 3.92604 9.07825 3.64778C9.35651 3.36952 9.7913 3.36952 10.0696 3.64778L14.4 7.99561C14.6783 8.27387 14.6783 8.72604 14.4 8.98691Z" fill="#308FFF"/>
</g></symbol><symbol id="icon-new-window" viewBox="0 0 16 17"><g fill="none">
<path d="M16 0V8.5H14.9333V2.07627L4.97707 12.6548L4.22293 11.8535L14.3125 1.13333H8V0H16ZM11.7333 15.8667H1.06667V4.53333H8.07893V3.4H0V17H12.8V8.25747H11.7333V15.8667Z" fill="#E8DAFF"/>
</g></symbol><symbol id="icon-quotes" viewBox="0 0 48 36"><g fill="none">
<path d="M28.034 36L28.034 21.218C28.034 9.81 35.496 2.078 46 0L47.99 4.302C43.126 6.136 40 11.578 40 16H48V36H28.034ZM0 36V21.218C0 9.81 7.496 2.076 18 0L19.992 4.302C15.126 6.136 12 11.578 12 16H19.966L19.966 36L0 36Z" fill="#7E3AF2"/>
</g></symbol><symbol id="icon-tick" viewBox="0 0 16 16"><g fill="none">
<path fill-rule="evenodd" clip-rule="evenodd" d="M8 16C10.1217 16 12.1566 15.1571 13.6569 13.6569C15.1571 12.1566 16 10.1217 16 8C16 5.87827 15.1571 3.84344 13.6569 2.34315C12.1566 0.842855 10.1217 0 8 0C5.87827 0 3.84344 0.842855 2.34315 2.34315C0.842855 3.84344 0 5.87827 0 8C0 10.1217 0.842855 12.1566 2.34315 13.6569C3.84344 15.1571 5.87827 16 8 16ZM11.707 6.707C11.8892 6.5184 11.99 6.2658 11.9877 6.0036C11.9854 5.7414 11.8802 5.49059 11.6948 5.30518C11.5094 5.11977 11.2586 5.0146 10.9964 5.01233C10.7342 5.01005 10.4816 5.11084 10.293 5.293L7 8.586L5.707 7.293C5.5184 7.11084 5.2658 7.01005 5.0036 7.01233C4.7414 7.0146 4.49059 7.11977 4.30518 7.30518C4.11977 7.49059 4.0146 7.7414 4.01233 8.0036C4.01005 8.2658 4.11084 8.5184 4.293 8.707L6.293 10.707C6.48053 10.8945 6.73484 10.9998 7 10.9998C7.26516 10.9998 7.51947 10.8945 7.707 10.707L11.707 6.707Z" fill="#7E3AF2"/>
</g></symbol></svg>